<?xml version="1.0" encoding="UTF-8"?>
<svg width="30px" height="30px" viewBox="0 0 30 30" version="1.1" xmlns="http://www.w3.org/2000/svg" xmlns:xlink="http://www.w3.org/1999/xlink">
    <!-- Generator: Sketch 43.1 (39012) - http://www.bohemiancoding.com/sketch -->
    <title>facebook</title>
    <desc>Created with Sketch.</desc>
    <defs></defs>
    <g id="Page-1" stroke="none" stroke-width="1" fill="none" fill-rule="evenodd">
        <g id="facebook" fill-rule="nonzero">
            <path d="" id="Shape" fill="#000000"></path>
            <path d="" id="Shape" fill="#000000"></path>
            <path d="" id="Shape" fill="#000000"></path>
            <path d="" id="Shape" fill="#000000"></path>
            <path d="" id="Shape" fill="#000000"></path>
            <path d="" id="Shape" fill="#000000"></path>
            <path d="" id="Shape" fill="#000000"></path>
            <path d="" id="Shape" fill="#000000"></path>
            <path d="" id="Shape" fill="#000000"></path>
            <path d="M30.001403,15.0007015 C30.001403,6.71730938 23.2840936,0 15.0007015,0 C6.71730938,0 0,6.71730938 0,15.0007015 C0,23.2840936 6.71730938,30.001403 15.0007015,30.001403 C15.0888251,30.001403 15.176491,29.9995718 15.2643857,29.9979696 L15.2643857,18.3205589 L12.0415787,18.3205589 L12.0415787,14.5646612 L15.2643857,14.5646612 L15.2643857,11.8007838 C15.2643857,8.59537265 17.221188,6.85075369 20.0805136,6.85075369 C21.4497488,6.85075369 22.6267142,6.95283979 22.9698242,6.99838942 L22.9698242,10.3484606 L20.9981438,10.3484606 C19.4425901,10.3484606 19.1413675,11.0877835 19.1413675,12.1725053 L19.1413675,14.5646612 L22.8608713,14.5646612 L22.3760769,18.3205589 L19.1413675,18.3205589 L19.1413675,29.4218471 C25.4114209,27.624354 30.001403,21.8477929 30.001403,15.0007015 Z" id="Shape" fill="#FFFFFF"></path>
            <path d="" id="Shape" fill="#000000"></path>
            <path d="" id="Shape" fill="#000000"></path>
        </g>
    </g>
</svg>